<mxfile host="app.diagrams.net" agent="Mozilla/5.0 (Windows NT 10.0; Win64; x64) AppleWebKit/537.36 (KHTML, like Gecko) Chrome/131.0.0.0 Safari/537.36" version="24.9.2">
  <diagram name="페이지-1" id="mxA0i-kUuKpZQX5HB6S9">
    <mxGraphModel dx="1434" dy="746" grid="0" gridSize="10" guides="1" tooltips="1" connect="1" arrows="1" fold="1" page="1" pageScale="1" pageWidth="1169" pageHeight="827" math="0" shadow="0">
      <root>
        <mxCell id="0" />
        <mxCell id="1" parent="0" />
        <mxCell id="_UvJJAaCKCHF5UDKu6AW-1" value="공통DB&lt;div&gt;(1대)&lt;/div&gt;" style="shape=cylinder3;whiteSpace=wrap;html=1;boundedLbl=1;backgroundOutline=1;size=15;" vertex="1" parent="1">
          <mxGeometry x="362" y="305" width="106" height="115" as="geometry" />
        </mxCell>
        <mxCell id="_UvJJAaCKCHF5UDKu6AW-2" value="결과 저장 서버" style="rounded=1;whiteSpace=wrap;html=1;" vertex="1" parent="1">
          <mxGeometry x="116" y="386" width="120" height="60" as="geometry" />
        </mxCell>
        <mxCell id="_UvJJAaCKCHF5UDKu6AW-12" style="edgeStyle=orthogonalEdgeStyle;rounded=0;orthogonalLoop=1;jettySize=auto;html=1;" edge="1" parent="1" source="_UvJJAaCKCHF5UDKu6AW-3" target="_UvJJAaCKCHF5UDKu6AW-2">
          <mxGeometry relative="1" as="geometry" />
        </mxCell>
        <mxCell id="_UvJJAaCKCHF5UDKu6AW-3" value="외부 API 처리 서버" style="rounded=1;whiteSpace=wrap;html=1;" vertex="1" parent="1">
          <mxGeometry x="116" y="243" width="120" height="60" as="geometry" />
        </mxCell>
        <mxCell id="_UvJJAaCKCHF5UDKu6AW-11" style="edgeStyle=orthogonalEdgeStyle;rounded=0;orthogonalLoop=1;jettySize=auto;html=1;exitX=0.5;exitY=1;exitDx=0;exitDy=0;entryX=0.5;entryY=0;entryDx=0;entryDy=0;" edge="1" parent="1" source="_UvJJAaCKCHF5UDKu6AW-5" target="_UvJJAaCKCHF5UDKu6AW-3">
          <mxGeometry relative="1" as="geometry" />
        </mxCell>
        <mxCell id="_UvJJAaCKCHF5UDKu6AW-5" value="요청 서버&lt;div&gt;(1,2,3 ...)&lt;/div&gt;" style="rounded=1;whiteSpace=wrap;html=1;" vertex="1" parent="1">
          <mxGeometry x="116" y="89" width="120" height="60" as="geometry" />
        </mxCell>
        <mxCell id="_UvJJAaCKCHF5UDKu6AW-8" value="서버 개별 DB&lt;div&gt;(1,2,3...)&lt;/div&gt;" style="shape=cylinder3;whiteSpace=wrap;html=1;boundedLbl=1;backgroundOutline=1;size=15;" vertex="1" parent="1">
          <mxGeometry x="362" y="136" width="106" height="115" as="geometry" />
        </mxCell>
        <mxCell id="_UvJJAaCKCHF5UDKu6AW-13" value="" style="endArrow=classic;html=1;rounded=0;exitX=1;exitY=0.5;exitDx=0;exitDy=0;entryX=0.009;entryY=0.565;entryDx=0;entryDy=0;entryPerimeter=0;" edge="1" parent="1" source="_UvJJAaCKCHF5UDKu6AW-5" target="_UvJJAaCKCHF5UDKu6AW-1">
          <mxGeometry width="50" height="50" relative="1" as="geometry">
            <mxPoint x="435" y="388" as="sourcePoint" />
            <mxPoint x="485" y="338" as="targetPoint" />
          </mxGeometry>
        </mxCell>
        <mxCell id="_UvJJAaCKCHF5UDKu6AW-14" value="" style="endArrow=classic;html=1;rounded=0;exitX=1;exitY=0.5;exitDx=0;exitDy=0;entryX=0;entryY=0.5;entryDx=0;entryDy=0;entryPerimeter=0;" edge="1" parent="1" source="_UvJJAaCKCHF5UDKu6AW-2" target="_UvJJAaCKCHF5UDKu6AW-1">
          <mxGeometry width="50" height="50" relative="1" as="geometry">
            <mxPoint x="246" y="129" as="sourcePoint" />
            <mxPoint x="367" y="239" as="targetPoint" />
          </mxGeometry>
        </mxCell>
        <mxCell id="_UvJJAaCKCHF5UDKu6AW-15" value="" style="endArrow=classic;html=1;rounded=0;entryX=0;entryY=0.5;entryDx=0;entryDy=0;entryPerimeter=0;exitX=1;exitY=0.5;exitDx=0;exitDy=0;" edge="1" parent="1" source="_UvJJAaCKCHF5UDKu6AW-5" target="_UvJJAaCKCHF5UDKu6AW-8">
          <mxGeometry width="50" height="50" relative="1" as="geometry">
            <mxPoint x="302" y="116" as="sourcePoint" />
            <mxPoint x="367" y="239" as="targetPoint" />
          </mxGeometry>
        </mxCell>
        <mxCell id="_UvJJAaCKCHF5UDKu6AW-16" value="" style="endArrow=classic;html=1;rounded=0;entryX=0;entryY=0.5;entryDx=0;entryDy=0;entryPerimeter=0;exitX=1;exitY=0.5;exitDx=0;exitDy=0;" edge="1" parent="1" source="_UvJJAaCKCHF5UDKu6AW-2" target="_UvJJAaCKCHF5UDKu6AW-8">
          <mxGeometry width="50" height="50" relative="1" as="geometry">
            <mxPoint x="246" y="129" as="sourcePoint" />
            <mxPoint x="371" y="419" as="targetPoint" />
          </mxGeometry>
        </mxCell>
        <mxCell id="_UvJJAaCKCHF5UDKu6AW-17" value="공통DB&lt;div&gt;(1대)&lt;/div&gt;" style="shape=cylinder3;whiteSpace=wrap;html=1;boundedLbl=1;backgroundOutline=1;size=15;" vertex="1" parent="1">
          <mxGeometry x="960" y="283" width="106" height="115" as="geometry" />
        </mxCell>
        <mxCell id="_UvJJAaCKCHF5UDKu6AW-20" value="외부 API 처리 서버" style="rounded=1;whiteSpace=wrap;html=1;" vertex="1" parent="1">
          <mxGeometry x="710" y="306" width="120" height="60" as="geometry" />
        </mxCell>
        <mxCell id="_UvJJAaCKCHF5UDKu6AW-21" style="edgeStyle=orthogonalEdgeStyle;rounded=0;orthogonalLoop=1;jettySize=auto;html=1;exitX=0.5;exitY=1;exitDx=0;exitDy=0;entryX=0.5;entryY=0;entryDx=0;entryDy=0;" edge="1" parent="1" source="_UvJJAaCKCHF5UDKu6AW-22" target="_UvJJAaCKCHF5UDKu6AW-20">
          <mxGeometry relative="1" as="geometry" />
        </mxCell>
        <mxCell id="_UvJJAaCKCHF5UDKu6AW-22" value="요청 / 결과 저장 서버" style="rounded=1;whiteSpace=wrap;html=1;" vertex="1" parent="1">
          <mxGeometry x="710" y="152" width="120" height="60" as="geometry" />
        </mxCell>
        <mxCell id="_UvJJAaCKCHF5UDKu6AW-23" value="서버 개별 DB" style="shape=cylinder3;whiteSpace=wrap;html=1;boundedLbl=1;backgroundOutline=1;size=15;" vertex="1" parent="1">
          <mxGeometry x="960" y="124.5" width="106" height="115" as="geometry" />
        </mxCell>
        <mxCell id="_UvJJAaCKCHF5UDKu6AW-24" value="" style="endArrow=classic;html=1;rounded=0;exitX=1;exitY=0.5;exitDx=0;exitDy=0;entryX=0.009;entryY=0.565;entryDx=0;entryDy=0;entryPerimeter=0;" edge="1" parent="1" source="_UvJJAaCKCHF5UDKu6AW-22" target="_UvJJAaCKCHF5UDKu6AW-17">
          <mxGeometry width="50" height="50" relative="1" as="geometry">
            <mxPoint x="1029" y="451" as="sourcePoint" />
            <mxPoint x="1079" y="401" as="targetPoint" />
          </mxGeometry>
        </mxCell>
        <mxCell id="_UvJJAaCKCHF5UDKu6AW-25" value="" style="endArrow=classic;html=1;rounded=0;exitX=1;exitY=0.5;exitDx=0;exitDy=0;entryX=0;entryY=0.5;entryDx=0;entryDy=0;entryPerimeter=0;" edge="1" parent="1" source="_UvJJAaCKCHF5UDKu6AW-20" target="_UvJJAaCKCHF5UDKu6AW-17">
          <mxGeometry width="50" height="50" relative="1" as="geometry">
            <mxPoint x="830" y="479" as="sourcePoint" />
            <mxPoint x="961" y="302" as="targetPoint" />
          </mxGeometry>
        </mxCell>
        <mxCell id="_UvJJAaCKCHF5UDKu6AW-26" value="" style="endArrow=classic;html=1;rounded=0;entryX=0;entryY=0.5;entryDx=0;entryDy=0;entryPerimeter=0;exitX=1;exitY=0.5;exitDx=0;exitDy=0;" edge="1" parent="1" source="_UvJJAaCKCHF5UDKu6AW-22" target="_UvJJAaCKCHF5UDKu6AW-23">
          <mxGeometry width="50" height="50" relative="1" as="geometry">
            <mxPoint x="896" y="179" as="sourcePoint" />
            <mxPoint x="961" y="302" as="targetPoint" />
          </mxGeometry>
        </mxCell>
        <mxCell id="_UvJJAaCKCHF5UDKu6AW-29" value="" style="curved=1;endArrow=classic;html=1;rounded=0;exitX=0.5;exitY=1;exitDx=0;exitDy=0;entryX=0.5;entryY=0;entryDx=0;entryDy=0;" edge="1" parent="1" source="_UvJJAaCKCHF5UDKu6AW-20" target="_UvJJAaCKCHF5UDKu6AW-22">
          <mxGeometry width="50" height="50" relative="1" as="geometry">
            <mxPoint x="558" y="409" as="sourcePoint" />
            <mxPoint x="608" y="359" as="targetPoint" />
            <Array as="points">
              <mxPoint x="739" y="455" />
              <mxPoint x="647" y="436" />
              <mxPoint x="647" y="274" />
              <mxPoint x="649" y="60" />
              <mxPoint x="770" y="60" />
            </Array>
          </mxGeometry>
        </mxCell>
      </root>
    </mxGraphModel>
  </diagram>
</mxfile>
